# xmcd
# 
# Track frame offsets:
#     150
#     19195
#     38370
#     59517
#     80782
#     108465
#     131240
#     150672
#     176935
#     196045
# 
# Disc length: 2921
# 
# Revision: 0
# Processed by: cddbd v1.5.2PL0 Copyright (c) Steve Scherf et al.
# Submitted via: BonkEnc v1.0
# 
DISCID=840b670a
DTITLE=Marcos Witt - Adoremos!
DYEAR=1994
DGENRE=Música Cristiana
TTITLE0=Tengo La Victoria
TTITLE1=Un Adorador
TTITLE2=Tu Misericordia
TTITLE3=Libertad
TTITLE4=Te Amo
TTITLE5=Resucitó
TTITLE6=Mira
TTITLE7=Yo Soy
TTITLE8=Adoremos
TTITLE9=Hoy
EXTD=
EXTT0=
EXTT1=
EXTT2=
EXTT3=
EXTT4=
EXTT5=
EXTT6=
EXTT7=
EXTT8=
EXTT9=
PLAYORDER=
